<svg xmlns="http://www.w3.org/2000/svg" viewBox="0 19.170000076293945 99.66000366210938 35.880001068115234" data-asc="1.0869140625" height="210" width="474"><g fill="#ff0000"><g fill="#ff0000" transform="translate(0, 0)"><path d="M25 39.50L29.15 39.50L29.15 47.31L25 47.31L25 54.35L14.84 54.35L14.84 47.31L0 47.31L0 39.50L8.59 19.82L25 19.82L25 39.50M13.16 27.00L8.40 39.50L14.84 39.50L14.84 27.00L13.16 27.00ZM49.85 19.17Q52.93 19.17 55.35 19.87Q57.76 20.58 59.58 21.81Q61.40 23.05 62.67 24.76Q63.94 26.46 64.73 28.45Q65.53 30.44 65.89 32.65Q66.26 34.86 66.26 37.11Q66.26 39.33 65.89 41.55Q65.53 43.77 64.72 45.76Q63.92 47.75 62.65 49.46Q61.38 51.17 59.55 52.40Q57.71 53.64 55.31 54.35Q52.91 55.05 49.85 55.05Q46.80 55.05 44.40 54.35Q41.99 53.64 40.16 52.40Q38.33 51.17 37.06 49.46Q35.79 47.75 34.99 45.76Q34.18 43.77 33.81 41.55Q33.45 39.33 33.45 37.11Q33.45 34.86 33.81 32.65Q34.18 30.44 34.97 28.45Q35.77 26.46 37.04 24.76Q38.31 23.05 40.12 21.81Q41.94 20.58 44.36 19.87Q46.78 19.17 49.85 19.17M49.85 26.98Q48.51 26.98 47.50 27.82Q46.48 28.66 45.80 30.08Q45.12 31.49 44.76 33.33Q44.41 35.16 44.41 37.13Q44.41 39.06 44.75 40.89Q45.09 42.72 45.78 44.13Q46.46 45.53 47.47 46.39Q48.49 47.24 49.85 47.24Q51.20 47.24 52.22 46.39Q53.25 45.53 53.93 44.13Q54.61 42.72 54.96 40.89Q55.30 39.06 55.30 37.13Q55.30 35.16 54.94 33.33Q54.59 31.49 53.91 30.08Q53.22 28.66 52.21 27.82Q51.20 26.98 49.85 26.98ZM95.51 39.50L99.66 39.50L99.66 47.31L95.51 47.31L95.51 54.35L85.35 54.35L85.35 47.31L70.51 47.31L70.51 39.50L79.10 19.82L95.51 19.82L95.51 39.50M83.67 27.00L78.91 39.50L85.35 39.50L85.35 27.00L83.67 27.00Z"/></g></g></svg>